<?xml version="1.0" encoding="UTF-8"?>
<svg xmlns="http://www.w3.org/2000/svg" xmlns:xlink="http://www.w3.org/1999/xlink" width="580pt" height="483.66pt" viewBox="0 0 580 483.66" version="1.1">
<g id="surface1">
<path style=" stroke:none;fill-rule:nonzero;fill:rgb(13.299561%,12.199402%,12.5%);fill-opacity:1;" d="M 0 -0.00390625 L 580 -0.00390625 L 580 483.660156 L 0 483.660156 L 0 -0.00390625 "/>
<path style=" stroke:none;fill-rule:nonzero;fill:rgb(100%,100%,100%);fill-opacity:1;" d="M 318.269531 198.941406 L 318.269531 190.683594 C 318.277344 189.425781 319.226563 188.582031 320.371094 188.582031 L 357.40625 188.582031 C 358.597656 188.582031 359.546875 189.449219 359.546875 190.675781 L 359.546875 197.769531 C 359.53125 198.941406 358.527344 200.496094 356.757813 202.964844 L 337.558594 230.355469 C 344.683594 230.1875 352.222656 231.253906 358.695313 234.894531 C 360.152344 235.71875 360.550781 236.917969 360.660156 238.113281 L 360.660156 246.945313 C 360.660156 248.167969 359.328125 249.574219 357.941406 248.839844 C 346.527344 242.855469 331.398438 242.203125 318.796875 248.914063 C 317.503906 249.601563 316.160156 248.222656 316.160156 247 L 316.160156 238.597656 C 316.160156 237.261719 316.179688 234.964844 317.535156 232.921875 L 339.761719 201.027344 L 320.414063 201.027344 C 319.230469 201.027344 318.28125 200.1875 318.269531 198.941406 "/>
<path style=" stroke:none;fill-rule:nonzero;fill:rgb(100%,100%,100%);fill-opacity:1;" d="M 183.164063 250.582031 L 171.894531 250.582031 C 170.824219 250.515625 169.957031 249.710938 169.878906 248.679688 L 169.886719 190.824219 C 169.886719 189.671875 170.851563 188.742188 172.058594 188.742188 L 182.554688 188.738281 C 183.652344 188.796875 184.53125 189.628906 184.605469 190.683594 L 184.605469 198.242188 L 184.8125 198.242188 C 187.539063 190.933594 192.703125 187.519531 199.636719 187.519531 C 206.6875 187.519531 211.09375 190.933594 214.257813 198.242188 C 216.996094 190.933594 223.195313 187.519531 229.828125 187.519531 C 234.566406 187.519531 239.714844 189.472656 242.875 193.855469 C 246.457031 198.710938 245.714844 205.785156 245.714844 211.980469 L 245.710938 248.496094 C 245.710938 249.65625 244.730469 250.585938 243.53125 250.585938 L 232.28125 250.585938 C 231.144531 250.519531 230.257813 249.617188 230.257813 248.511719 L 230.257813 217.828125 C 230.257813 215.394531 230.460938 209.316406 229.933594 206.992188 C 229.089844 203.097656 226.566406 202.003906 223.304688 202.003906 C 220.582031 202.003906 217.734375 203.832031 216.574219 206.753906 C 215.425781 209.679688 215.523438 214.535156 215.523438 217.828125 L 215.523438 248.496094 C 215.523438 249.65625 214.550781 250.585938 213.351563 250.585938 L 202.097656 250.585938 C 200.964844 250.519531 200.070313 249.617188 200.070313 248.511719 L 200.054688 217.828125 C 200.054688 211.371094 201.113281 201.882813 193.121094 201.882813 C 185.015625 201.882813 185.332031 211.144531 185.332031 217.828125 L 185.328125 248.496094 C 185.324219 249.65625 184.371094 250.582031 183.164063 250.582031 "/>
<path style=" stroke:none;fill-rule:nonzero;fill:rgb(100%,100%,100%);fill-opacity:1;" d="M 391.546875 199.320313 C 383.226563 199.320313 382.699219 210.65625 382.699219 217.695313 C 382.699219 224.761719 382.59375 239.847656 391.4375 239.847656 C 400.148438 239.847656 400.5625 227.679688 400.5625 220.273438 C 400.5625 215.398438 400.359375 209.558594 398.882813 204.929688 C 397.625 200.902344 395.101563 199.320313 391.546875 199.320313 Z M 391.441406 187.519531 C 408.148438 187.519531 417.214844 201.882813 417.214844 220.144531 C 417.214844 237.785156 407.199219 251.804688 391.441406 251.804688 C 375.023438 251.804688 366.078125 237.410156 366.078125 219.527344 C 366.074219 201.519531 375.125 187.519531 391.441406 187.519531 "/>
<path style=" stroke:none;fill-rule:nonzero;fill:rgb(100%,100%,100%);fill-opacity:1;" d="M 438.894531 250.582031 L 427.660156 250.582031 C 426.523438 250.515625 425.640625 249.617188 425.640625 248.507813 L 425.617188 190.632813 C 425.714844 189.570313 426.648438 188.738281 427.785156 188.738281 L 438.25 188.734375 C 439.238281 188.785156 440.050781 189.460938 440.253906 190.359375 L 440.253906 199.203125 L 440.464844 199.203125 C 443.617188 191.300781 448.019531 187.515625 455.804688 187.515625 C 460.863281 187.515625 465.816406 189.347656 468.972656 194.34375 C 471.898438 198.953125 471.898438 206.753906 471.898438 212.347656 L 471.898438 248.753906 C 471.769531 249.789063 470.84375 250.578125 469.761719 250.578125 L 458.445313 250.578125 C 457.421875 250.519531 456.566406 249.738281 456.4375 248.753906 L 456.4375 217.34375 C 456.4375 211.023438 457.183594 201.757813 449.382813 201.757813 C 446.644531 201.757813 444.148438 203.589844 442.878906 206.390625 C 441.304688 209.921875 441.097656 213.441406 441.097656 217.34375 L 441.097656 248.496094 C 441.0625 249.65625 440.09375 250.582031 438.894531 250.582031 "/>
<path style=" stroke:none;fill-rule:nonzero;fill:rgb(100%,100%,100%);fill-opacity:1;" d="M 138.90625 234.902344 C 137.109375 238.058594 134.269531 240.015625 131.109375 240.015625 C 126.785156 240.015625 124.257813 236.71875 124.257813 231.851563 C 124.257813 222.257813 132.871094 220.515625 141.019531 220.515625 L 141.019531 222.949219 C 141.019531 227.332031 141.121094 230.996094 138.90625 234.902344 Z M 161.078125 239.96875 C 159.03125 237.113281 156.835938 234.808594 156.835938 229.527344 L 156.835938 211.964844 C 156.835938 204.535156 157.367188 197.707031 151.878906 192.582031 C 147.550781 188.429688 140.386719 186.964844 134.898438 186.964844 C 124.175781 186.964844 112.214844 190.96875 109.703125 204.21875 C 109.433594 205.636719 110.460938 206.371094 111.386719 206.578125 L 122.308594 207.765625 C 123.324219 207.710938 124.070313 206.699219 124.265625 205.6875 C 125.207031 201.117188 129.03125 198.914063 133.328125 198.914063 C 135.640625 198.914063 138.273438 199.773438 139.652344 201.847656 C 141.234375 204.160156 141.019531 207.339844 141.019531 210.023438 L 141.019531 211.476563 C 134.480469 212.210938 125.941406 212.695313 119.835938 215.382813 C 112.769531 218.441406 107.820313 224.652344 107.820313 233.808594 C 107.820313 245.53125 115.195313 251.386719 124.675781 251.386719 C 132.703125 251.386719 137.070313 249.488281 143.261719 243.1875 C 145.308594 246.152344 145.976563 247.582031 149.71875 250.707031 C 150.558594 251.152344 151.632813 251.113281 152.382813 250.441406 L 152.410156 250.464844 C 154.660156 248.460938 158.757813 244.902344 161.046875 242.976563 C 161.960938 242.21875 161.796875 240.988281 161.078125 239.96875 "/>
<path style=" stroke:none;fill-rule:nonzero;fill:rgb(100%,100%,100%);fill-opacity:1;" d="M 286.628906 234.902344 C 284.847656 238.058594 281.996094 240.015625 278.832031 240.015625 C 274.507813 240.015625 271.988281 236.71875 271.988281 231.851563 C 271.988281 222.257813 280.59375 220.515625 288.738281 220.515625 L 288.738281 222.949219 C 288.738281 227.332031 288.847656 230.996094 286.628906 234.902344 Z M 308.808594 239.96875 C 306.746094 237.113281 304.554688 234.808594 304.554688 229.527344 L 304.554688 211.964844 C 304.554688 204.535156 305.082031 197.707031 299.59375 192.582031 C 295.285156 188.429688 288.109375 186.964844 282.632813 186.964844 C 271.910156 186.964844 259.941406 190.96875 257.433594 204.21875 C 257.164063 205.636719 258.191406 206.371094 259.113281 206.578125 L 270.03125 207.765625 C 271.0625 207.710938 271.800781 206.699219 271.992188 205.6875 C 272.9375 201.117188 276.746094 198.914063 281.050781 198.914063 C 283.367188 198.914063 286.007813 199.773438 287.371094 201.847656 C 288.949219 204.160156 288.738281 207.339844 288.738281 210.023438 L 288.738281 211.476563 C 282.207031 212.210938 273.671875 212.695313 267.5625 215.382813 C 260.496094 218.441406 255.539063 224.652344 255.539063 233.808594 C 255.539063 245.53125 262.910156 251.386719 272.402344 251.386719 C 280.410156 251.386719 284.800781 249.488281 290.984375 243.1875 C 293.027344 246.152344 293.703125 247.582031 297.441406 250.707031 C 298.289063 251.152344 299.351563 251.113281 300.097656 250.441406 L 300.121094 250.464844 C 302.378906 248.460938 306.472656 244.902344 308.773438 242.976563 C 309.695313 242.21875 309.535156 240.988281 308.808594 239.96875 "/>
<path style=" stroke:none;fill-rule:nonzero;fill:rgb(97.599792%,64.698792%,10.998535%);fill-opacity:1;" d="M 333.316406 273.0625 C 311.816406 288.410156 281.875 296.695313 255.457031 296.695313 C 218.449219 296.695313 185.464844 283.300781 160.054688 260.351563 C 157.703125 258.230469 159.21875 255.738281 162.144531 257.417969 C 189.789063 273.40625 222.921875 282.761719 257.683594 282.761719 C 281.128906 282.761719 306.03125 278.09375 329.695313 268.023438 C 334.867188 265.820313 337.011719 270.425781 333.316406 273.0625 "/>
<path style=" stroke:none;fill-rule:nonzero;fill:rgb(97.599792%,64.698792%,10.998535%);fill-opacity:1;" d="M 342.503906 262.707031 C 339.78125 259.234375 324.601563 261.0625 317.78125 261.871094 C 315.726563 262.121094 315.390625 260.316406 317.261719 259.011719 C 329.371094 250.546875 349.222656 253.011719 351.519531 255.804688 C 353.839844 258.679688 350.90625 278.597656 339.558594 288.101563 C 337.8125 289.574219 336.167969 288.777344 336.9375 286.851563 C 339.484375 280.460938 345.207031 266.167969 342.503906 262.707031 "/>
<path style=" stroke:none;fill-rule:nonzero;fill:rgb(100%,100%,100%);fill-opacity:1;" d="M 482.582031 242.773438 L 482.582031 248.558594 L 483.582031 248.558594 L 483.582031 246.277344 L 484.398438 246.277344 C 484.953125 246.277344 485.335938 246.34375 485.554688 246.464844 C 485.929688 246.683594 486.113281 247.121094 486.113281 247.792969 L 486.113281 248.25 L 486.132813 248.4375 C 486.140625 248.460938 486.144531 248.480469 486.148438 248.5 C 486.15625 248.519531 486.160156 248.539063 486.164063 248.558594 L 487.117188 248.558594 L 487.078125 248.484375 C 487.050781 248.4375 487.035156 248.339844 487.023438 248.1875 C 487.011719 248.03125 487.011719 247.890625 487.011719 247.753906 L 487.011719 247.335938 C 487.011719 247.042969 486.902344 246.742188 486.695313 246.433594 C 486.484375 246.128906 486.15625 245.941406 485.703125 245.871094 C 486.058594 245.8125 486.339844 245.722656 486.542969 245.59375 C 486.925781 245.34375 487.117188 244.964844 487.117188 244.449219 C 487.117188 243.722656 486.8125 243.234375 486.210938 242.980469 C 485.871094 242.84375 485.34375 242.773438 484.621094 242.773438 Z M 486.113281 244.542969 C 486.113281 244.980469 485.914063 245.273438 485.507813 245.433594 C 485.28125 245.523438 484.957031 245.5625 484.519531 245.5625 L 483.582031 245.5625 L 483.582031 243.492188 L 484.464844 243.492188 C 485.042969 243.492188 485.460938 243.558594 485.722656 243.703125 C 485.980469 243.847656 486.113281 244.121094 486.113281 244.542969 Z M 490.007813 245.683594 C 490.007813 244.226563 489.484375 242.984375 488.457031 241.957031 C 487.425781 240.929688 486.171875 240.414063 484.707031 240.414063 C 483.253906 240.414063 482.011719 240.929688 480.980469 241.957031 C 479.949219 242.984375 479.429688 244.226563 479.429688 245.683594 C 479.429688 247.152344 479.941406 248.402344 480.964844 249.433594 C 481.992188 250.472656 483.242188 250.992188 484.703125 250.992188 C 486.167969 250.992188 487.421875 250.472656 488.453125 249.433594 C 489.484375 248.402344 490.007813 247.148438 490.007813 245.683594 Z M 484.714844 241.136719 C 485.984375 241.136719 487.0625 241.578125 487.953125 242.476563 C 488.839844 243.359375 489.289063 244.4375 489.289063 245.695313 C 489.289063 246.964844 488.84375 248.042969 487.953125 248.933594 C 487.0625 249.828125 485.984375 250.273438 484.714844 250.273438 C 483.441406 250.273438 482.363281 249.828125 481.480469 248.933594 C 480.59375 248.042969 480.148438 246.960938 480.148438 245.695313 C 480.148438 244.4375 480.59375 243.359375 481.488281 242.476563 C 482.378906 241.582031 483.457031 241.136719 484.714844 241.136719 "/>
</g>
</svg>
